<svg xmlns="http://www.w3.org/2000/svg" width="1200" height="630" viewBox="0 0 1200 630">
  <defs>
    <pattern id="grain" width="6" height="6" patternUnits="userSpaceOnUse">
      <circle cx="1" cy="1" r="0.45" fill="#181914" opacity="0.12"/>
    </pattern>
  </defs>

  <rect width="1200" height="630" fill="#e7e2d8"/>
  <rect width="1200" height="630" fill="url(#grain)"/>
  <path d="M0 72H1200M0 576H1200" stroke="#181914" stroke-opacity="0.45"/>

  <g font-family="Helvetica Neue,Arial,sans-serif" fill="#181914">
    <text x="52" y="43" font-size="15" font-weight="800" letter-spacing="1">ERIC ACOSTA</text>
    <text x="184" y="43" font-size="11" font-weight="600" letter-spacing="1.4">SOFTWARE + PRODUCT</text>
    <text x="52" y="238" font-size="142" font-weight="900" letter-spacing="-8">ERIC</text>
    <text x="82" y="354" fill="none" stroke="#181914" stroke-width="2" font-size="142" font-weight="900" letter-spacing="-8">ACOSTA</text>
    <text x="54" y="434" font-size="27" font-weight="600" letter-spacing="-1">I build digital products that make</text>
    <text x="54" y="468" font-size="27" font-weight="600" letter-spacing="-1">complex ideas feel obvious.</text>
    <text x="52" y="608" font-size="11" font-weight="700" letter-spacing="1.5">AUSTIN / TEXAS</text>
    <text x="480" y="608" font-size="11" font-weight="700" letter-spacing="1.5">DESIGN · CODE · PRODUCT</text>
  </g>

  <g stroke="#181914" stroke-width="2" stroke-linejoin="round">
    <path d="M664 450H747c25 0 21-32 47-32h36M1039 419h27c29 0 24 35 53 35h44" fill="none" stroke-dasharray="5 7"/>
    <circle cx="664" cy="450" r="6" fill="#d4512b"/>
    <circle cx="1163" cy="454" r="6" fill="#345d92"/>

    <g transform="rotate(-5 819 263)">
      <rect x="701" y="137" width="248" height="248" fill="#181914" opacity="0.12" stroke="none" transform="translate(9 10)"/>
      <rect x="701" y="137" width="248" height="248" fill="#f2efe7"/>
      <rect x="701" y="137" width="248" height="40" fill="#181914"/>
      <circle cx="720" cy="157" r="4.5" fill="#d4512b" stroke="none"/>
      <circle cx="736" cy="157" r="4.5" fill="#f2efe7" stroke="none"/>
      <circle cx="752" cy="157" r="4.5" fill="#788063" stroke="none"/>
      <g stroke="none">
        <rect x="742" y="205" width="84" height="9" rx="2" fill="#345d92"/>
        <rect x="835" y="205" width="47" height="9" rx="2" fill="#181914" opacity="0.72"/>
        <rect x="742" y="239" width="116" height="9" rx="2" fill="#181914" opacity="0.72"/>
        <rect x="726" y="239" width="10" height="9" rx="2" fill="#d4512b"/>
        <rect x="759" y="273" width="82" height="9" rx="2" fill="#788063"/>
        <rect x="726" y="273" width="26" height="9" rx="2" fill="#181914" opacity="0.72"/>
        <rect x="742" y="307" width="132" height="9" rx="2" fill="#181914" opacity="0.72"/>
        <rect x="726" y="307" width="10" height="9" rx="2" fill="#345d92"/>
      </g>
      <g fill="#5c5d56" stroke="none" font-family="Menlo,Consolas,monospace" font-size="8" font-weight="700">
        <text x="716" y="213">01</text><text x="716" y="247">02</text><text x="716" y="281">03</text><text x="716" y="315">04</text>
      </g>
      <path d="M701 344H949" stroke="#181914" stroke-opacity="0.3" stroke-width="1"/>
      <circle cx="719" cy="365" r="4" fill="#788063" stroke="none"/>
      <text x="731" y="368" fill="#181914" stroke="none" font-family="Helvetica Neue,Arial,sans-serif" font-size="7" font-weight="800" letter-spacing="1">SOURCE READY</text>
    </g>

    <g transform="rotate(4 1016 254)">
      <rect x="897" y="116" width="247" height="274" fill="#181914" opacity="0.12" stroke="none" transform="translate(9 10)"/>
      <rect x="897" y="116" width="247" height="274" fill="#f2efe7"/>
      <rect x="897" y="116" width="247" height="44" fill="#788063"/>
      <circle cx="917" cy="138" r="5" fill="#f2efe7" stroke="none"/>
      <text x="931" y="142" fill="#f2efe7" stroke="none" font-family="Helvetica Neue,Arial,sans-serif" font-size="8" font-weight="800" letter-spacing="1">PRODUCT / LIVE</text>
      <rect x="918" y="181" width="205" height="44" fill="#181914" stroke="none"/>
      <text x="933" y="200" fill="#f2efe7" stroke="none" font-family="Helvetica Neue,Arial,sans-serif" font-size="8" font-weight="800" letter-spacing="1">THE USEFUL PART</text>
      <rect x="933" y="208" width="104" height="5" fill="#f2efe7" opacity="0.55" stroke="none"/>
      <rect x="918" y="243" width="96" height="98" fill="#345d92" stroke="none"/>
      <path d="m933 321 16-21 17 8 17-31 16 8" fill="none" stroke="#f2efe7" stroke-width="3"/>
      <circle cx="999" cy="285" r="5" fill="#d4512b" stroke="#f2efe7"/>
      <rect x="1028" y="243" width="95" height="43" fill="#d4512b" stroke="none"/>
      <text x="1043" y="278" fill="#181914" stroke="none" font-family="Arial Narrow,Arial,sans-serif" font-size="35" font-weight="900">98</text>
      <text x="1104" y="275" fill="#181914" stroke="none" font-family="Helvetica Neue,Arial,sans-serif" font-size="11" font-weight="800">%</text>
      <rect x="1028" y="299" width="95" height="42" fill="#d9d5ca"/>
      <circle cx="1047" cy="320" r="7" fill="#788063" stroke="none"/>
      <path d="m1043 320 3 3 6-7" fill="none" stroke="#f2efe7" stroke-width="2"/>
      <path d="M1061 313h45M1061 326h31" stroke="#181914" stroke-width="5" opacity="0.6"/>
      <path d="M897 360H1144" stroke="#181914" stroke-opacity="0.3" stroke-width="1"/>
      <g fill="#181914" stroke="none" font-family="Helvetica Neue,Arial,sans-serif" font-size="7" font-weight="800" letter-spacing="1">
        <text x="917" y="378">DESIGN</text><text x="1005" y="378">CODE</text><text x="1123" y="378" text-anchor="end">SHIP</text>
      </g>
    </g>

    <g>
      <rect x="792" y="339" width="270" height="166" fill="#181914" opacity="0.12" stroke="none" transform="translate(9 10)"/>
      <rect x="792" y="339" width="270" height="166" fill="#181914"/>
      <g fill="#f2efe7" stroke="none" font-family="Helvetica Neue,Arial,sans-serif" font-size="7" font-weight="800" letter-spacing="1">
        <text x="814" y="367">BUILD PIPELINE / 04</text>
        <text x="1040" y="367" text-anchor="end" fill="#b8c49a">ALL SYSTEMS GO</text>
      </g>
      <path d="M836 407H1018" stroke="#f2efe7" stroke-opacity="0.4"/>
      <g stroke="#f2efe7" stroke-width="2">
        <circle cx="836" cy="407" r="16" fill="#345d92"/><circle cx="927" cy="407" r="16" fill="#788063"/><circle cx="1018" cy="407" r="16" fill="#d4512b"/>
        <path d="m829 407 5 5 10-12M920 407l5 5 10-12M1011 407l5 5 10-12" fill="none"/>
      </g>
      <g fill="#f2efe7" stroke="none" font-family="Helvetica Neue,Arial,sans-serif" font-size="7" font-weight="800" letter-spacing="1">
        <text x="836" y="441" text-anchor="middle">BUILD</text><text x="927" y="441" text-anchor="middle">TEST</text><text x="1018" y="441" text-anchor="middle">SHIP</text>
      </g>
      <rect x="814" y="463" width="226" height="9" fill="#f2efe7" opacity="0.16" stroke="none"/>
      <rect x="814" y="463" width="175" height="9" fill="#345d92" stroke="none"/>
      <text x="814" y="491" fill="#f2efe7" opacity="0.72" stroke="none" font-family="Helvetica Neue,Arial,sans-serif" font-size="7" font-weight="800" letter-spacing="1">COMPILED WITHOUT COMPROMISE</text>
    </g>

    <g transform="translate(1053 77)">
      <rect x="7" y="7" width="82" height="82" fill="#181914" opacity="0.12" stroke="none"/>
      <rect width="82" height="82" fill="#d4512b"/>
      <text x="41" y="53" fill="#181914" stroke="none" text-anchor="middle" font-family="Menlo,Consolas,monospace" font-size="27" font-weight="900">&lt;/&gt;</text>
    </g>
  </g>

  <g transform="translate(966 493)" font-family="Helvetica Neue,Arial,sans-serif">
    <rect width="192" height="67" fill="#e7e2d8" stroke="#181914"/>
    <text x="12" y="18" fill="#181914" font-size="8" font-weight="700" letter-spacing="1">RUNTIME STUDY / 01</text>
    <text x="12" y="49" fill="#181914" font-size="21" font-weight="900">IDEAS, COMPILED.</text>
  </g>
</svg>
